{"glyphs":{"0":{"ha":1085,"x_min":0,"x_max":949,"o":"m 678 119 l 678 0 l 273 0 l 271 136 l 136 136 l 136 271 l 0 273 l 0 678 l 136 678 l 136 814 l 254 814 l 271 831 l 271 949 l 678 949 l 678 814 l 814 814 l 814 678 l 949 678 l 949 271 l 814 271 l 814 136 l 695 136 l 678 119 m 271 797 l 271 271 l 407 271 l 407 136 l 661 136 l 678 153 l 678 678 l 543 678 l 543 814 l 288 814 l 271 797 z "},"1":{"ha":949,"x_min":0,"x_max":814,"o":"m 543 949 l 543 136 l 814 136 l 814 0 l 0 0 l 0 136 l 271 136 l 271 678 l 136 678 l 136 814 l 271 814 l 271 949 l 543 949 z "},"2":{"ha":1085,"x_min":0,"x_max":949,"o":"m 949 0 l 0 0 l 0 273 l 137 273 l 137 409 l 273 409 l 273 545 l 682 545 l 678 814 l 271 814 l 271 678 l 0 678 l 0 814 l 136 814 l 136 949 l 814 949 l 814 814 l 949 814 l 949 543 l 814 543 l 814 407 l 543 407 l 543 271 l 407 271 l 407 136 l 949 136 l 949 0 z "},"3":{"ha":1085,"x_min":0,"x_max":949,"o":"m 137 0 l 137 137 l 0 137 l 0 273 l 273 273 l 273 137 l 678 136 l 678 407 l 271 407 l 271 543 l 407 543 l 407 678 l 543 678 l 543 814 l 136 814 l 136 949 l 949 949 l 949 814 l 814 814 l 814 678 l 678 678 l 678 543 l 814 543 l 814 407 l 949 407 l 949 136 l 819 137 l 819 0 l 137 0 z "},"4":{"ha":1085,"x_min":0,"x_max":949,"o":"m 543 678 l 407 678 l 407 543 l 271 543 l 271 407 l 543 407 l 543 678 m 407 949 l 814 949 l 814 407 l 949 407 l 949 271 l 814 271 l 814 0 l 543 0 l 543 271 l 0 271 l 0 545 l 137 545 l 136 678 l 271 678 l 271 814 l 407 814 l 407 949 z "},"5":{"ha":1085,"x_min":0,"x_max":949,"o":"m 271 814 l 271 678 l 814 678 l 814 543 l 949 543 l 949 136 l 814 136 l 814 0 l 137 0 l 137 137 l 0 137 l 0 273 l 273 273 l 273 137 l 678 136 l 678 543 l 0 543 l 0 949 l 814 949 l 814 814 l 271 814 z "},"6":{"ha":1085,"x_min":0,"x_max":949,"o":"m 136 0 l 136 136 l 0 136 l 0 678 l 136 678 l 136 814 l 271 814 l 271 949 l 814 949 l 814 814 l 407 814 l 407 678 l 271 678 l 271 543 l 814 543 l 814 407 l 949 407 l 949 136 l 814 136 l 814 0 l 136 0 m 271 136 l 678 136 l 678 407 l 271 407 l 271 136 z "},"7":{"ha":1085,"x_min":0,"x_max":949,"o":"m 136 814 l 136 678 l 0 678 l 0 949 l 949 949 l 949 678 l 814 678 l 814 543 l 678 543 l 678 407 l 543 407 l 543 0 l 271 0 l 271 407 l 407 407 l 407 543 l 543 543 l 543 678 l 678 678 l 678 814 l 136 814 z "},"8":{"ha":1085,"x_min":0,"x_max":949,"o":"m 136 390 l 137 151 l 153 136 l 678 136 l 678 271 l 407 271 l 407 407 l 153 407 l 136 390 m 695 543 l 678 526 l 678 407 l 949 407 l 949 136 l 814 136 l 814 0 l 136 0 l 136 119 l 119 136 l 119 137 l 0 137 l 0 407 l 119 407 l 136 424 l 136 543 l 0 543 l 0 814 l 136 814 l 136 949 l 678 949 l 678 831 l 695 814 l 814 814 l 814 543 l 695 543 m 661 543 l 678 559 l 678 797 l 661 814 l 271 814 l 271 678 l 407 678 l 407 543 l 661 543 z "},"9":{"ha":1085,"x_min":0,"x_max":949,"o":"m 814 949 l 814 814 l 949 814 l 949 271 l 814 271 l 814 136 l 678 136 l 678 0 l 136 0 l 136 136 l 543 136 l 543 271 l 678 271 l 678 407 l 136 407 l 136 543 l 0 543 l 0 814 l 136 814 l 136 949 l 814 949 m 678 814 l 271 814 l 271 543 l 678 543 l 678 814 z "},"\u0000":{"ha":0,"x_min":0,"x_max":0,"o":""},"\u001d":{"ha":0,"x_min":0,"x_max":0,"o":""}," ":{"ha":1092,"x_min":0,"x_max":0,"o":""}," ":{"ha":1092,"x_min":0,"x_max":0,"o":""},"!":{"ha":949,"x_min":0,"x_max":814,"o":"m 137 137 l 137 0 l 0 0 l 0 137 l 137 137 m 543 407 l 407 407 l 407 271 l 271 271 l 271 543 l 407 543 l 407 814 l 543 814 l 543 949 l 814 949 l 814 678 l 678 678 l 678 543 l 543 543 l 543 407 z "},"\"":{"ha":543,"x_min":0,"x_max":407,"o":"m 137 951 l 137 678 l 0 678 l 0 951 l 137 951 m 407 951 l 407 678 l 271 678 l 271 951 l 407 951 z "},"#":{"ha":814,"x_min":0,"x_max":682,"o":"m 271 543 l 271 407 l 407 407 l 407 543 l 271 543 m 543 543 l 543 407 l 682 407 l 682 272 l 545 272 l 545 136 l 409 136 l 409 272 l 272 272 l 272 136 l 137 136 l 137 272 l 0 272 l 0 407 l 137 407 l 137 544 l 0 544 l 0 678 l 136 678 l 136 814 l 271 814 l 271 678 l 407 678 l 407 814 l 543 814 l 543 678 l 678 678 l 678 543 l 543 543 z "},"$":{"ha":1085,"x_min":0,"x_max":949,"o":"m 543 407 l 543 271 l 678 271 l 678 407 l 543 407 m 543 543 l 814 543 l 814 407 l 949 407 l 949 271 l 814 271 l 814 136 l 545 137 l 545 0 l 407 0 l 407 136 l 137 137 l 136 271 l 407 271 l 407 407 l 136 407 l 136 543 l 0 543 l 0 682 l 137 682 l 136 814 l 407 814 l 407 949 l 543 949 l 543 814 l 814 814 l 814 678 l 543 678 l 543 543 m 407 543 l 407 678 l 271 678 l 271 543 l 407 543 z "},"%":{"ha":1085,"x_min":0,"x_max":949,"o":"m 678 407 l 543 407 l 543 271 l 407 271 l 407 136 l 271 136 l 271 0 l 0 0 l 0 271 l 136 271 l 136 407 l 271 407 l 271 543 l 407 543 l 407 678 l 543 678 l 543 814 l 678 814 l 678 949 l 949 949 l 949 678 l 814 678 l 814 543 l 678 543 l 678 407 m 271 949 l 271 678 l 0 678 l 0 949 l 271 949 m 949 271 l 949 0 l 678 0 l 678 271 l 949 271 z "},"&":{"ha":1085,"x_min":0,"x_max":949,"o":"m 271 136 l 543 136 l 543 271 l 407 271 l 407 407 l 271 407 l 271 136 m 543 559 l 543 797 l 526 814 l 271 814 l 271 678 l 407 678 l 407 543 l 526 543 l 543 559 m 559 814 l 678 814 l 678 543 l 559 543 l 543 526 l 543 407 l 678 407 l 678 271 l 797 271 l 814 288 l 814 543 l 949 543 l 949 271 l 831 271 l 814 254 l 814 136 l 949 136 l 949 0 l 137 0 l 137 137 l 0 137 l 0 409 l 137 409 l 137 545 l 0 545 l 0 814 l 136 814 l 136 949 l 543 949 l 543 831 l 559 814 z "},"'":{"ha":271,"x_min":0,"x_max":137,"o":"m 137 951 l 137 678 l 0 678 l 0 951 l 137 951 z "},"(":{"ha":949,"x_min":0,"x_max":814,"o":"m 136 136 l 0 136 l 0 814 l 136 814 l 136 949 l 814 949 l 814 814 l 271 814 l 271 136 l 814 136 l 814 0 l 137 0 l 136 136 z "},")":{"ha":949,"x_min":0,"x_max":814,"o":"m 677 0 l 0 0 l 0 136 l 543 136 l 543 814 l 0 814 l 0 949 l 678 949 l 678 814 l 814 814 l 814 136 l 678 136 l 677 0 z "},"*":{"ha":814,"x_min":0,"x_max":682,"o":"m 136 254 l 136 136 l 0 136 l 0 272 l 119 271 l 136 288 l 137 288 l 137 407 l 0 407 l 0 543 l 136 543 l 136 661 l 119 678 l 0 678 l 0 814 l 136 814 l 136 695 l 153 678 l 271 678 l 271 543 l 407 543 l 407 678 l 526 678 l 543 695 l 543 815 l 680 815 l 680 678 l 559 678 l 543 661 l 543 543 l 682 543 l 682 407 l 545 407 l 545 286 l 559 272 l 680 272 l 680 136 l 543 136 l 543 254 l 526 271 l 407 271 l 407 407 l 272 407 l 272 271 l 153 271 l 136 254 z "},"+":{"ha":814,"x_min":0,"x_max":678,"o":"m 272 544 l 271 814 l 407 814 l 407 543 l 678 543 l 678 407 l 407 407 l 407 136 l 271 136 l 271 407 l 0 407 l 0 544 l 272 544 z "},",":{"ha":271,"x_min":0,"x_max":136,"o":"m 136 136 l 136 -136 l 0 -136 l 0 136 l 136 136 z "},"-":{"ha":814,"x_min":0,"x_max":678,"o":"m 0 543 l 678 543 l 678 407 l 0 407 l 0 543 z "},"­":{"ha":814,"x_min":0,"x_max":678,"o":"m 0 543 l 678 543 l 678 407 l 0 407 l 0 543 z "},".":{"ha":271,"x_min":0,"x_max":136,"o":"m 136 136 l 136 0 l 0 0 l 0 136 l 136 136 z "},"/":{"ha":1085,"x_min":0,"x_max":949,"o":"m 678 407 l 543 407 l 543 271 l 407 271 l 407 136 l 271 136 l 271 0 l 0 0 l 0 271 l 136 271 l 136 407 l 271 407 l 271 543 l 407 543 l 407 678 l 543 678 l 543 814 l 678 814 l 678 949 l 949 949 l 949 678 l 814 678 l 814 543 l 678 543 l 678 407 z "},":":{"ha":271,"x_min":0,"x_max":136,"o":"m 136 136 l 136 0 l 0 0 l 0 136 l 136 136 m 136 543 l 136 407 l 0 407 l 0 543 l 136 543 z "},";":{"ha":271,"x_min":0,"x_max":136,"o":"m 136 136 l 136 -136 l 0 -136 l 0 136 l 136 136 m 136 543 l 136 407 l 0 407 l 0 543 l 136 543 z "},";":{"ha":271,"x_min":0,"x_max":136,"o":"m 136 136 l 136 -136 l 0 -136 l 0 136 l 136 136 m 136 543 l 136 407 l 0 407 l 0 543 l 136 543 z "},"<":{"ha":949,"x_min":0,"x_max":819,"o":"m 819 136 l 406 135 l 406 271 l 269 271 l 269 407 l 0 408 l 0 544 l 269 543 l 269 677 l 404 677 l 404 813 l 814 814 l 814 678 l 540 677 l 540 542 l 404 542 l 404 406 l 543 407 l 543 271 l 819 272 l 819 136 z "},"=":{"ha":814,"x_min":0,"x_max":678,"o":"m 0 407 l 678 407 l 678 271 l 0 271 l 0 407 m 0 678 l 678 678 l 678 543 l 0 543 l 0 678 z "},">":{"ha":949,"x_min":0,"x_max":819,"o":"m 0 272 l 277 271 l 277 407 l 415 406 l 415 542 l 279 542 l 279 677 l 5 678 l 5 814 l 415 813 l 415 677 l 551 677 l 550 543 l 819 544 l 819 408 l 550 407 l 551 271 l 413 271 l 413 135 l 0 136 l 0 272 z "},"?":{"ha":1085,"x_min":0,"x_max":949,"o":"m 407 543 l 678 543 l 678 814 l 271 814 l 271 678 l 0 678 l 0 814 l 136 814 l 136 949 l 814 949 l 814 814 l 949 814 l 949 543 l 814 543 l 814 407 l 543 407 l 543 271 l 273 273 l 271 407 l 407 407 l 407 543 m 409 0 l 273 0 l 273 137 l 409 137 l 409 0 z "},"@":{"ha":1093,"x_min":0,"x_max":956,"o":"m 819 137 l 819 0 l 137 0 l 137 137 l 0 137 l 0 819 l 137 819 l 137 956 l 819 956 l 819 819 l 956 819 l 956 409 l 819 409 l 819 273 l 409 273 l 409 682 l 545 682 l 545 409 l 682 409 l 682 819 l 273 819 l 273 137 l 819 137 z "},"A":{"ha":1085,"x_min":0,"x_max":949,"o":"m 0 678 l 136 678 l 136 814 l 271 814 l 271 949 l 678 949 l 678 814 l 814 814 l 814 678 l 949 678 l 949 0 l 678 0 l 678 271 l 271 271 l 271 0 l 0 0 l 0 678 m 407 814 l 407 678 l 271 678 l 271 407 l 678 407 l 678 678 l 543 678 l 543 814 l 407 814 z "},"B":{"ha":1085,"x_min":0,"x_max":949,"o":"m 814 407 l 949 407 l 949 136 l 814 136 l 814 0 l 0 0 l 0 949 l 814 949 l 814 814 l 949 814 l 949 543 l 814 543 l 814 407 m 271 407 l 271 136 l 678 136 l 678 407 l 271 407 m 271 814 l 271 543 l 678 543 l 678 814 l 271 814 z "},"C":{"ha":1085,"x_min":0,"x_max":949,"o":"m 678 136 l 678 271 l 949 271 l 949 136 l 814 136 l 814 0 l 271 0 l 271 136 l 136 136 l 136 271 l 0 271 l 0 678 l 136 678 l 136 814 l 271 814 l 271 949 l 814 949 l 814 814 l 949 814 l 949 678 l 678 678 l 678 814 l 407 814 l 407 678 l 271 678 l 271 271 l 407 271 l 407 136 l 678 136 z "},"D":{"ha":1085,"x_min":0,"x_max":949,"o":"m 949 271 l 814 271 l 814 136 l 678 136 l 678 0 l 0 0 l 0 949 l 678 949 l 678 814 l 814 814 l 814 678 l 949 678 l 949 271 m 678 271 l 678 678 l 543 678 l 543 814 l 271 814 l 271 136 l 543 136 l 543 271 l 678 271 z "},"E":{"ha":949,"x_min":0,"x_max":814,"o":"m 814 407 l 271 407 l 271 136 l 814 136 l 814 0 l 0 0 l 0 949 l 814 949 l 814 814 l 271 814 l 271 543 l 814 543 l 814 407 z "},"F":{"ha":949,"x_min":0,"x_max":814,"o":"m 814 407 l 271 407 l 271 0 l 0 0 l 0 949 l 814 949 l 814 814 l 271 814 l 271 543 l 814 543 l 814 407 z "},"G":{"ha":1085,"x_min":0,"x_max":949,"o":"m 949 0 l 271 0 l 271 136 l 136 136 l 136 271 l 0 271 l 0 678 l 136 678 l 136 814 l 271 814 l 271 949 l 949 949 l 949 814 l 407 814 l 407 678 l 271 678 l 271 271 l 407 271 l 407 136 l 678 136 l 678 407 l 543 407 l 543 543 l 949 543 l 949 0 z "},"H":{"ha":1085,"x_min":0,"x_max":949,"o":"m 0 949 l 271 949 l 271 543 l 678 543 l 678 949 l 949 949 l 949 0 l 678 0 l 678 407 l 271 407 l 271 0 l 0 0 l 0 949 z "},"I":{"ha":949,"x_min":0,"x_max":814,"o":"m 543 814 l 543 136 l 814 136 l 814 0 l 0 0 l 0 136 l 271 136 l 271 814 l 0 814 l 0 949 l 814 949 l 814 814 l 543 814 z "},"J":{"ha":1085,"x_min":0,"x_max":949,"o":"m 678 136 l 678 949 l 949 949 l 949 136 l 814 136 l 814 0 l 137 0 l 136 136 l 0 136 l 0 271 l 271 271 l 271 136 l 678 136 z "},"K":{"ha":1085,"x_min":0,"x_max":949,"o":"m 0 949 l 271 949 l 271 543 l 407 543 l 407 678 l 543 678 l 543 814 l 678 814 l 678 949 l 949 949 l 949 814 l 814 814 l 814 678 l 678 678 l 678 543 l 543 543 l 543 407 l 678 407 l 678 271 l 814 271 l 814 136 l 949 136 l 949 0 l 543 0 l 543 136 l 407 136 l 407 271 l 271 271 l 271 0 l 0 0 l 0 949 z "},"L":{"ha":949,"x_min":0,"x_max":814,"o":"m 271 136 l 814 136 l 814 0 l 0 0 l 0 949 l 271 949 l 271 136 z "},"M":{"ha":1085,"x_min":0,"x_max":949,"o":"m 0 949 l 271 949 l 271 814 l 407 814 l 407 678 l 543 678 l 543 814 l 678 814 l 678 949 l 949 949 l 949 0 l 678 0 l 678 543 l 543 543 l 543 407 l 407 407 l 407 543 l 271 543 l 271 0 l 0 0 l 0 949 z "},"N":{"ha":1085,"x_min":0,"x_max":949,"o":"m 0 949 l 271 949 l 271 814 l 407 814 l 407 678 l 543 678 l 543 543 l 678 543 l 678 949 l 949 949 l 949 0 l 678 0 l 678 136 l 543 136 l 543 271 l 407 271 l 407 407 l 271 407 l 271 0 l 0 0 l 0 949 z "},"O":{"ha":1085,"x_min":0,"x_max":949,"o":"m 814 0 l 136 0 l 136 136 l 0 136 l 0 814 l 136 814 l 136 949 l 814 949 l 814 814 l 949 814 l 949 136 l 814 136 l 814 0 m 678 814 l 271 814 l 271 136 l 678 136 l 678 814 z "},"P":{"ha":1085,"x_min":0,"x_max":949,"o":"m 271 814 l 271 407 l 678 407 l 678 814 l 271 814 m 271 271 l 271 0 l 0 0 l 0 949 l 814 949 l 814 814 l 949 814 l 949 407 l 814 407 l 814 271 l 271 271 z "},"Q":{"ha":1085,"x_min":0,"x_max":949,"o":"m 678 814 l 271 814 l 271 136 l 543 136 l 543 271 l 407 271 l 407 407 l 678 407 l 678 814 m 797 136 l 678 136 l 678 0 l 137 0 l 136 136 l 0 136 l 0 814 l 136 814 l 136 949 l 814 949 l 814 814 l 949 814 l 949 271 l 814 271 l 814 153 l 831 136 l 949 136 l 949 0 l 814 0 l 814 119 l 797 136 z "},"R":{"ha":1085,"x_min":0,"x_max":956,"o":"m 271 814 l 271 407 l 543 407 l 543 543 l 678 543 l 678 814 l 271 814 m 271 271 l 271 0 l 0 0 l 0 949 l 814 949 l 814 814 l 949 814 l 949 407 l 678 407 l 678 271 l 814 271 l 814 136 l 956 137 l 956 0 l 543 0 l 543 136 l 407 136 l 407 271 l 271 271 z "},"S":{"ha":1085,"x_min":0,"x_max":949,"o":"m 814 678 l 543 678 l 543 814 l 271 814 l 271 543 l 814 543 l 814 407 l 949 407 l 949 136 l 814 136 l 814 0 l 136 0 l 136 136 l 0 136 l 0 273 l 273 273 l 271 136 l 678 136 l 678 407 l 136 407 l 136 543 l 0 543 l 0 814 l 136 814 l 136 949 l 678 949 l 678 814 l 814 814 l 814 678 z "},"T":{"ha":949,"x_min":0,"x_max":814,"o":"m 272 0 l 271 814 l 0 814 l 0 949 l 814 949 l 814 814 l 543 814 l 543 0 l 272 0 z "},"U":{"ha":1085,"x_min":0,"x_max":949,"o":"m 271 949 l 271 136 l 678 136 l 678 949 l 949 949 l 949 136 l 814 136 l 814 0 l 136 0 l 136 136 l 0 136 l 0 949 l 271 949 z "},"V":{"ha":1085,"x_min":0,"x_max":949,"o":"m 0 949 l 271 949 l 271 543 l 407 543 l 407 407 l 543 407 l 543 543 l 678 543 l 678 949 l 949 949 l 949 407 l 814 407 l 814 271 l 678 271 l 678 136 l 543 136 l 543 0 l 409 0 l 407 136 l 271 136 l 271 271 l 136 271 l 136 407 l 0 409 l 0 949 z "},"W":{"ha":1085,"x_min":0,"x_max":949,"o":"m 0 0 l 0 949 l 271 949 l 271 407 l 407 407 l 409 545 l 545 545 l 545 409 l 678 407 l 678 949 l 949 949 l 949 0 l 678 0 l 678 136 l 543 136 l 543 271 l 407 271 l 407 136 l 271 136 l 271 0 l 0 0 z "},"X":{"ha":1085,"x_min":0,"x_max":949,"o":"m 814 678 l 814 543 l 678 543 l 678 407 l 814 407 l 814 271 l 949 271 l 949 0 l 678 0 l 678 136 l 543 136 l 543 271 l 407 271 l 407 136 l 271 136 l 271 0 l 0 0 l 0 271 l 136 271 l 136 407 l 271 407 l 271 543 l 136 543 l 136 678 l 0 678 l 0 949 l 271 949 l 271 814 l 407 814 l 407 678 l 543 678 l 543 814 l 678 814 l 678 949 l 949 949 l 949 678 l 814 678 z "},"Y":{"ha":949,"x_min":0,"x_max":814,"o":"m 271 0 l 271 407 l 136 407 l 136 543 l 0 543 l 0 949 l 271 949 l 271 543 l 543 543 l 543 949 l 814 949 l 814 543 l 678 543 l 678 407 l 543 407 l 543 0 l 271 0 z "},"Z":{"ha":1085,"x_min":0,"x_max":956,"o":"m 543 814 l 0 814 l 0 949 l 949 949 l 949 678 l 814 678 l 814 543 l 678 543 l 678 407 l 543 407 l 543 271 l 407 271 l 407 136 l 956 137 l 956 0 l 0 0 l 0 271 l 136 271 l 136 407 l 271 407 l 271 543 l 407 543 l 407 678 l 543 678 l 543 814 z "},"[":{"ha":949,"x_min":0,"x_max":814,"o":"m 0 0 l 0 949 l 814 949 l 814 814 l 271 814 l 271 136 l 814 136 l 814 0 l 0 0 z "},"\\":{"ha":1085,"x_min":0,"x_max":949,"o":"m 271 543 l 136 543 l 136 678 l 0 678 l 0 949 l 271 949 l 271 814 l 407 814 l 407 678 l 543 678 l 543 543 l 678 543 l 678 407 l 814 407 l 814 271 l 949 271 l 949 0 l 678 0 l 678 136 l 543 136 l 543 271 l 407 271 l 407 407 l 271 407 l 271 543 z "},"]":{"ha":949,"x_min":0,"x_max":814,"o":"m 0 0 l 0 136 l 543 136 l 543 814 l 0 814 l 0 949 l 814 949 l 814 0 l 0 0 z "},"^":{"ha":678,"x_min":0,"x_max":543,"o":"m 136 1204 l 136 1085 l 0 1085 l 0 1221 l 119 1221 l 136 1238 l 136 1356 l 407 1356 l 407 1238 l 424 1221 l 543 1221 l 543 1085 l 407 1085 l 407 1204 l 390 1221 l 153 1221 l 136 1204 z "},"_":{"ha":1085,"x_min":0,"x_max":1085,"o":"m 0 0 l 1085 0 l 1085 -136 l 0 -136 l 0 0 z "},"`":{"ha":678,"x_min":0,"x_max":543,"o":"m 136 1085 l 136 1221 l 0 1221 l 0 1356 l 271 1356 l 271 1221 l 543 1221 l 543 1085 l 136 1085 z "},"a":{"ha":1085,"x_min":0,"x_max":949,"o":"m 0 678 l 136 678 l 136 814 l 271 814 l 271 949 l 678 949 l 678 814 l 814 814 l 814 678 l 949 678 l 949 0 l 678 0 l 678 271 l 271 271 l 271 0 l 0 0 l 0 678 m 407 814 l 407 678 l 271 678 l 271 407 l 678 407 l 678 678 l 543 678 l 543 814 l 407 814 z "},"b":{"ha":1085,"x_min":0,"x_max":949,"o":"m 814 407 l 949 407 l 949 136 l 814 136 l 814 0 l 0 0 l 0 949 l 814 949 l 814 814 l 949 814 l 949 543 l 814 543 l 814 407 m 271 407 l 271 136 l 678 136 l 678 407 l 271 407 m 271 814 l 271 543 l 678 543 l 678 814 l 271 814 z "},"c":{"ha":1085,"x_min":0,"x_max":949,"o":"m 678 136 l 678 271 l 949 271 l 949 136 l 814 136 l 814 0 l 271 0 l 271 136 l 136 136 l 136 271 l 0 271 l 0 678 l 136 678 l 136 814 l 271 814 l 271 949 l 814 949 l 814 814 l 949 814 l 949 678 l 678 678 l 678 814 l 407 814 l 407 678 l 271 678 l 271 271 l 407 271 l 407 136 l 678 136 z "},"d":{"ha":1085,"x_min":0,"x_max":949,"o":"m 949 271 l 814 271 l 814 136 l 678 136 l 678 0 l 0 0 l 0 949 l 678 949 l 678 814 l 814 814 l 814 678 l 949 678 l 949 271 m 678 271 l 678 678 l 543 678 l 543 814 l 271 814 l 271 136 l 543 136 l 543 271 l 678 271 z "},"e":{"ha":949,"x_min":0,"x_max":814,"o":"m 814 407 l 271 407 l 271 136 l 814 136 l 814 0 l 0 0 l 0 949 l 814 949 l 814 814 l 271 814 l 271 543 l 814 543 l 814 407 z "},"f":{"ha":949,"x_min":0,"x_max":814,"o":"m 814 407 l 271 407 l 271 0 l 0 0 l 0 949 l 814 949 l 814 814 l 271 814 l 271 543 l 814 543 l 814 407 z "},"g":{"ha":1085,"x_min":0,"x_max":949,"o":"m 949 0 l 271 0 l 271 136 l 136 136 l 136 271 l 0 271 l 0 678 l 136 678 l 136 814 l 271 814 l 271 949 l 949 949 l 949 814 l 407 814 l 407 678 l 271 678 l 271 271 l 407 271 l 407 136 l 678 136 l 678 407 l 543 407 l 543 543 l 949 543 l 949 0 z "},"h":{"ha":1085,"x_min":0,"x_max":949,"o":"m 0 949 l 271 949 l 271 543 l 678 543 l 678 949 l 949 949 l 949 0 l 678 0 l 678 407 l 271 407 l 271 0 l 0 0 l 0 949 z "},"i":{"ha":949,"x_min":0,"x_max":814,"o":"m 543 814 l 543 136 l 814 136 l 814 0 l 0 0 l 0 136 l 271 136 l 271 814 l 0 814 l 0 949 l 814 949 l 814 814 l 543 814 z "},"j":{"ha":1085,"x_min":0,"x_max":949,"o":"m 678 136 l 678 949 l 949 949 l 949 136 l 814 136 l 814 0 l 137 0 l 136 136 l 0 136 l 0 271 l 271 271 l 271 136 l 678 136 z "},"k":{"ha":1085,"x_min":0,"x_max":949,"o":"m 0 949 l 271 949 l 271 543 l 407 543 l 407 678 l 543 678 l 543 814 l 678 814 l 678 949 l 949 949 l 949 814 l 814 814 l 814 678 l 678 678 l 678 543 l 543 543 l 543 407 l 678 407 l 678 271 l 814 271 l 814 136 l 949 136 l 949 0 l 543 0 l 543 136 l 407 136 l 407 271 l 271 271 l 271 0 l 0 0 l 0 949 z "},"l":{"ha":949,"x_min":0,"x_max":814,"o":"m 271 136 l 814 136 l 814 0 l 0 0 l 0 949 l 271 949 l 271 136 z "},"m":{"ha":1085,"x_min":0,"x_max":949,"o":"m 0 949 l 271 949 l 271 814 l 407 814 l 407 678 l 543 678 l 543 814 l 678 814 l 678 949 l 949 949 l 949 0 l 678 0 l 678 543 l 543 543 l 543 407 l 407 407 l 407 543 l 271 543 l 271 0 l 0 0 l 0 949 z "},"n":{"ha":1085,"x_min":0,"x_max":949,"o":"m 0 949 l 271 949 l 271 814 l 407 814 l 407 678 l 543 678 l 543 543 l 678 543 l 678 949 l 949 949 l 949 0 l 678 0 l 678 136 l 543 136 l 543 271 l 407 271 l 407 407 l 271 407 l 271 0 l 0 0 l 0 949 z "},"o":{"ha":1085,"x_min":0,"x_max":949,"o":"m 814 0 l 136 0 l 136 136 l 0 136 l 0 814 l 136 814 l 136 949 l 814 949 l 814 814 l 949 814 l 949 136 l 814 136 l 814 0 m 678 814 l 271 814 l 271 136 l 678 136 l 678 814 z "},"p":{"ha":1085,"x_min":0,"x_max":949,"o":"m 271 814 l 271 407 l 678 407 l 678 814 l 271 814 m 271 271 l 271 0 l 0 0 l 0 949 l 814 949 l 814 814 l 949 814 l 949 407 l 814 407 l 814 271 l 271 271 z "},"q":{"ha":1085,"x_min":0,"x_max":949,"o":"m 678 814 l 271 814 l 271 136 l 543 136 l 543 271 l 407 271 l 407 407 l 678 407 l 678 814 m 797 136 l 678 136 l 678 0 l 137 0 l 136 136 l 0 136 l 0 814 l 136 814 l 136 949 l 814 949 l 814 814 l 949 814 l 949 271 l 814 271 l 814 153 l 831 136 l 949 136 l 949 0 l 814 0 l 814 119 l 797 136 z "},"r":{"ha":1085,"x_min":0,"x_max":956,"o":"m 271 814 l 271 407 l 543 407 l 543 543 l 678 543 l 678 814 l 271 814 m 271 271 l 271 0 l 0 0 l 0 949 l 814 949 l 814 814 l 949 814 l 949 407 l 678 407 l 678 271 l 814 271 l 814 136 l 956 137 l 956 0 l 543 0 l 543 136 l 407 136 l 407 271 l 271 271 z "},"s":{"ha":1085,"x_min":0,"x_max":949,"o":"m 814 678 l 543 678 l 543 814 l 271 814 l 271 543 l 814 543 l 814 407 l 949 407 l 949 136 l 814 136 l 814 0 l 136 0 l 136 136 l 0 136 l 0 273 l 273 273 l 271 136 l 678 136 l 678 407 l 136 407 l 136 543 l 0 543 l 0 814 l 136 814 l 136 949 l 678 949 l 678 814 l 814 814 l 814 678 z "},"t":{"ha":949,"x_min":0,"x_max":814,"o":"m 272 0 l 271 814 l 0 814 l 0 949 l 814 949 l 814 814 l 543 814 l 543 0 l 272 0 z "},"u":{"ha":1085,"x_min":0,"x_max":949,"o":"m 271 949 l 271 136 l 678 136 l 678 949 l 949 949 l 949 136 l 814 136 l 814 0 l 136 0 l 136 136 l 0 136 l 0 949 l 271 949 z "},"v":{"ha":1085,"x_min":0,"x_max":949,"o":"m 0 949 l 271 949 l 271 543 l 407 543 l 407 407 l 543 407 l 543 543 l 678 543 l 678 949 l 949 949 l 949 407 l 814 407 l 814 271 l 678 271 l 678 136 l 543 136 l 543 0 l 409 0 l 407 136 l 271 136 l 271 271 l 136 271 l 136 407 l 0 409 l 0 949 z "},"w":{"ha":1085,"x_min":0,"x_max":949,"o":"m 0 0 l 0 949 l 271 949 l 271 407 l 407 407 l 409 545 l 545 545 l 545 409 l 678 407 l 678 949 l 949 949 l 949 0 l 678 0 l 678 136 l 543 136 l 543 271 l 407 271 l 407 136 l 271 136 l 271 0 l 0 0 z "},"x":{"ha":1085,"x_min":0,"x_max":949,"o":"m 814 678 l 814 543 l 678 543 l 678 407 l 814 407 l 814 271 l 949 271 l 949 0 l 678 0 l 678 136 l 543 136 l 543 271 l 407 271 l 407 136 l 271 136 l 271 0 l 0 0 l 0 271 l 136 271 l 136 407 l 271 407 l 271 543 l 136 543 l 136 678 l 0 678 l 0 949 l 271 949 l 271 814 l 407 814 l 407 678 l 543 678 l 543 814 l 678 814 l 678 949 l 949 949 l 949 678 l 814 678 z "},"y":{"ha":949,"x_min":0,"x_max":814,"o":"m 271 0 l 271 407 l 136 407 l 136 543 l 0 543 l 0 949 l 271 949 l 271 543 l 543 543 l 543 949 l 814 949 l 814 543 l 678 543 l 678 407 l 543 407 l 543 0 l 271 0 z "},"z":{"ha":1085,"x_min":0,"x_max":956,"o":"m 543 814 l 0 814 l 0 949 l 949 949 l 949 678 l 814 678 l 814 543 l 678 543 l 678 407 l 543 407 l 543 271 l 407 271 l 407 136 l 956 137 l 956 0 l 0 0 l 0 271 l 136 271 l 136 407 l 271 407 l 271 543 l 407 543 l 407 678 l 543 678 l 543 814 z "},"{":{"ha":949,"x_min":0,"x_max":814,"o":"m 407 136 l 814 136 l 814 0 l 271 0 l 271 136 l 136 136 l 136 407 l 0 407 l 0 543 l 136 543 l 136 814 l 271 814 l 271 949 l 814 949 l 814 814 l 407 814 l 407 543 l 271 543 l 271 407 l 407 407 l 407 136 z "},"|":{"ha":271,"x_min":0,"x_max":136,"o":"m 0 0 l 0 949 l 136 949 l 136 0 l 0 0 z "},"}":{"ha":949,"x_min":0,"x_max":814,"o":"m 407 407 l 543 407 l 543 543 l 407 543 l 407 814 l 0 814 l 0 949 l 543 949 l 543 814 l 678 814 l 678 543 l 814 543 l 814 407 l 678 407 l 678 136 l 543 136 l 543 0 l 0 0 l 0 136 l 407 136 l 407 407 z "},"~":{"ha":949,"x_min":0,"x_max":814,"o":"m 678 1238 l 678 1356 l 814 1356 l 814 1221 l 695 1221 l 678 1204 l 678 1085 l 407 1085 l 407 1204 l 390 1221 l 153 1221 l 136 1204 l 136 1085 l 0 1085 l 0 1221 l 119 1221 l 136 1238 l 136 1356 l 407 1356 l 407 1238 l 424 1221 l 661 1221 l 678 1238 z "},"¡":{"ha":949,"x_min":0,"x_max":814,"o":"m 677 812 l 677 949 l 814 949 l 814 812 l 677 812 m 271 543 l 407 543 l 407 678 l 543 678 l 543 407 l 407 407 l 407 136 l 271 136 l 271 0 l 0 0 l 0 271 l 136 271 l 136 407 l 271 407 l 271 543 z "},"¢":{"ha":1085,"x_min":0,"x_max":949,"o":"m 678 271 l 949 271 l 949 136 l 678 136 l 678 0 l 543 0 l 543 136 l 271 136 l 271 271 l 136 271 l 136 407 l 0 407 l 0 543 l 136 543 l 136 678 l 271 678 l 271 814 l 543 814 l 543 949 l 678 949 l 678 814 l 949 814 l 949 678 l 678 678 l 678 271 m 543 678 l 407 678 l 407 543 l 271 543 l 271 407 l 407 407 l 407 271 l 543 271 l 543 678 z "},"£":{"ha":1085,"x_min":0,"x_max":949,"o":"m 407 407 l 407 136 l 949 136 l 949 0 l 0 0 l 0 136 l 136 136 l 136 407 l 0 407 l 0 543 l 136 543 l 136 678 l 271 678 l 271 814 l 407 814 l 407 949 l 814 949 l 814 814 l 949 814 l 949 678 l 678 678 l 678 814 l 543 814 l 543 678 l 407 678 l 407 543 l 678 543 l 678 407 l 407 407 z "},"¤":{"ha":1085,"x_min":0,"x_max":949,"o":"m 814 678 l 814 271 l 949 271 l 949 0 l 678 0 l 678 136 l 271 136 l 271 0 l 0 0 l 0 271 l 136 271 l 136 678 l 0 678 l 0 949 l 271 949 l 271 814 l 678 814 l 678 949 l 949 949 l 949 678 l 814 678 m 271 678 l 271 271 l 678 271 l 678 678 l 271 678 z "},"¥":{"ha":949,"x_min":0,"x_max":814,"o":"m 543 136 l 543 0 l 271 0 l 271 136 l 136 136 l 136 271 l 271 271 l 271 407 l 136 407 l 136 543 l 0 543 l 0 949 l 271 949 l 271 543 l 543 543 l 543 949 l 814 949 l 814 543 l 678 543 l 678 407 l 543 407 l 543 271 l 678 271 l 678 136 l 543 136 z "},"¦":{"ha":271,"x_min":0,"x_max":136,"o":"m 0 543 l 0 949 l 136 949 l 136 543 l 0 543 m 136 407 l 136 0 l 0 0 l 0 407 l 136 407 z "},"§":{"ha":1085,"x_min":0,"x_max":949,"o":"m 136 543 l 0 543 l 0 949 l 136 949 l 136 1085 l 678 1085 l 678 949 l 814 949 l 814 814 l 543 814 l 543 949 l 271 949 l 271 678 l 678 678 l 678 543 l 814 543 l 814 407 l 949 407 l 949 -2 l 814 -2 l 814 -138 l 136 -138 l 136 -2 l 0 -2 l 0 136 l 273 136 l 271 -2 l 678 -2 l 678 271 l 136 271 l 136 543 m 271 407 l 543 407 l 543 543 l 271 543 l 271 407 z "},"¨":{"ha":678,"x_min":0,"x_max":543,"o":"m 136 1221 l 136 1085 l 0 1085 l 0 1221 l 136 1221 m 543 1221 l 543 1085 l 407 1085 l 407 1221 l 543 1221 z "},"©":{"ha":1085,"x_min":0,"x_max":949,"o":"m 136 153 l 153 136 l 797 136 l 814 153 l 814 797 l 797 814 l 153 814 l 136 797 l 136 153 m 119 136 l 0 136 l 0 814 l 119 814 l 136 831 l 136 949 l 814 949 l 814 831 l 831 814 l 949 814 l 949 136 l 831 136 l 814 119 l 814 0 l 136 0 l 136 119 l 119 136 m 271 678 l 678 678 l 678 543 l 407 543 l 407 407 l 678 407 l 678 271 l 271 271 l 271 678 z "},"ª":{"ha":1119,"x_min":0,"x_max":1017,"o":"m 136 0 q 0 136 0 0 l 0 882 q 136 1017 0 1017 l 882 1017 q 1017 882 1017 1017 l 1017 136 q 882 0 1017 0 l 136 0 m 882 17 q 1000 136 1000 17 l 1000 882 q 882 1000 1000 1000 l 136 1000 q 17 882 18 1000 l 17 136 q 136 17 18 17 l 882 17 z "},"«":{"ha":949,"x_min":0,"x_max":814,"o":"m 271 695 l 271 814 l 407 814 l 407 678 l 288 678 l 271 661 l 271 543 l 153 543 l 136 526 l 136 424 l 153 407 l 271 407 l 271 288 l 288 271 l 407 271 l 407 136 l 271 136 l 271 254 l 254 271 l 136 271 l 136 390 l 119 407 l 0 407 l 0 543 l 119 543 l 136 559 l 136 678 l 254 678 l 271 695 m 678 695 l 678 814 l 814 814 l 814 678 l 695 678 l 678 661 l 678 543 l 559 543 l 543 526 l 543 424 l 559 407 l 678 407 l 678 288 l 695 271 l 814 271 l 814 136 l 678 136 l 678 254 l 661 271 l 543 271 l 543 390 l 526 407 l 407 407 l 407 543 l 526 543 l 543 559 l 543 678 l 661 678 l 678 695 z "},"¬":{"ha":688,"x_min":59,"x_max":629,"o":"m 59 520 l 629 520 l 629 187 l 628 186 l 562 186 l 562 452 l 59 452 l 59 520 z "},"®":{"ha":1085,"x_min":0,"x_max":949,"o":"m 136 153 l 153 136 l 797 136 l 814 153 l 814 797 l 797 814 l 153 814 l 136 797 l 136 153 m 119 136 l 0 136 l 0 814 l 119 814 l 136 831 l 136 949 l 814 949 l 814 831 l 831 814 l 949 814 l 949 136 l 831 136 l 814 119 l 814 0 l 136 0 l 136 119 l 119 136 m 271 678 l 678 678 l 678 543 l 407 543 l 407 271 l 271 271 l 271 678 z "},"¯":{"ha":1085,"x_min":0,"x_max":1085,"o":"m 0 1221 l 1085 1221 l 1085 1085 l 0 1085 l 0 1221 z "},"°":{"ha":457,"x_min":41,"x_max":418,"o":"m 230 930 q 130 889 172 930 q 88 789 88 848 q 130 689 88 730 q 230 648 171 648 q 330 689 289 648 q 370 789 370 730 q 329 889 370 848 q 230 930 288 930 m 230 978 q 363 923 308 978 q 418 789 418 867 q 362 656 418 712 q 229 601 307 601 q 95 656 149 601 q 41 789 41 711 q 96 923 41 868 q 230 978 151 978 z "},"±":{"ha":1119,"x_min":0,"x_max":1017,"o":"m 136 0 q 0 136 0 0 l 0 882 q 136 1017 0 1017 l 882 1017 q 1017 882 1017 1017 l 1017 136 q 882 0 1017 0 l 136 0 m 882 17 q 1000 136 1000 17 l 1000 882 q 882 1000 1000 1000 l 136 1000 q 17 882 18 1000 l 17 136 q 136 17 18 17 l 882 17 z "},"²":{"ha":1119,"x_min":0,"x_max":1017,"o":"m 136 0 q 0 136 0 0 l 0 882 q 136 1017 0 1017 l 882 1017 q 1017 882 1017 1017 l 1017 136 q 882 0 1017 0 l 136 0 m 882 17 q 1000 136 1000 17 l 1000 882 q 882 1000 1000 1000 l 136 1000 q 17 882 18 1000 l 17 136 q 136 17 18 17 l 882 17 z "},"³":{"ha":1119,"x_min":0,"x_max":1017,"o":"m 136 0 q 0 136 0 0 l 0 882 q 136 1017 0 1017 l 882 1017 q 1017 882 1017 1017 l 1017 136 q 882 0 1017 0 l 136 0 m 882 17 q 1000 136 1000 17 l 1000 882 q 882 1000 1000 1000 l 136 1000 q 17 882 18 1000 l 17 136 q 136 17 18 17 l 882 17 z "},"´":{"ha":678,"x_min":0,"x_max":543,"o":"m 0 1085 l 1 1221 l 272 1221 l 272 1356 l 543 1356 l 543 1221 l 408 1221 l 408 1085 l 0 1085 z "},"µ":{"ha":1085,"x_min":0,"x_max":949,"o":"m 0 949 l 271 949 l 271 136 l 678 136 l 678 949 l 949 949 l 949 136 l 814 136 l 814 0 l 271 0 l 271 -136 l 0 -136 l 0 949 z "},"¶":{"ha":694,"x_min":63,"x_max":630,"o":"m 630 973 l 630 926 l 544 926 l 544 0 l 488 0 l 488 926 l 376 926 l 376 0 l 319 0 l 319 500 q 132 570 201 506 q 63 736 63 634 q 136 908 63 843 q 330 973 209 973 l 630 973 z "},"·":{"ha":271,"x_min":0,"x_max":136,"o":"m 136 543 l 136 407 l 0 407 l 0 543 l 136 543 z "},"∙":{"ha":271,"x_min":0,"x_max":136,"o":"m 136 543 l 136 407 l 0 407 l 0 543 l 136 543 z "},"¸":{"ha":543,"x_min":0,"x_max":407,"o":"m 271 -119 l 271 0 l 407 0 l 407 -136 l 288 -136 l 271 -153 l 271 -271 l 0 -271 l 0 -136 l 254 -136 l 271 -119 z "},"¹":{"ha":1119,"x_min":0,"x_max":1017,"o":"m 136 0 q 0 136 0 0 l 0 882 q 136 1017 0 1017 l 882 1017 q 1017 882 1017 1017 l 1017 136 q 882 0 1017 0 l 136 0 m 882 17 q 1000 136 1000 17 l 1000 882 q 882 1000 1000 1000 l 136 1000 q 17 882 18 1000 l 17 136 q 136 17 18 17 l 882 17 z "},"º":{"ha":1119,"x_min":0,"x_max":1017,"o":"m 136 0 q 0 136 0 0 l 0 882 q 136 1017 0 1017 l 882 1017 q 1017 882 1017 1017 l 1017 136 q 882 0 1017 0 l 136 0 m 882 17 q 1000 136 1000 17 l 1000 882 q 882 1000 1000 1000 l 136 1000 q 17 882 18 1000 l 17 136 q 136 17 18 17 l 882 17 z "},"»":{"ha":949,"x_min":0,"x_max":814,"o":"m 559 678 l 678 678 l 678 559 l 695 543 l 814 543 l 814 407 l 695 407 l 678 390 l 678 271 l 559 271 l 543 254 l 543 136 l 407 136 l 407 271 l 526 271 l 543 288 l 543 407 l 661 407 l 678 424 l 678 526 l 661 543 l 543 543 l 543 661 l 526 678 l 407 678 l 407 814 l 543 814 l 543 695 l 559 678 m 153 678 l 271 678 l 271 559 l 288 543 l 407 543 l 407 407 l 288 407 l 271 390 l 271 271 l 153 271 l 136 254 l 136 136 l 0 136 l 0 271 l 119 271 l 136 288 l 136 407 l 254 407 l 271 424 l 271 526 l 254 543 l 136 543 l 136 661 l 119 678 l 0 678 l 0 814 l 136 814 l 136 695 l 153 678 z "},"¼":{"ha":1119,"x_min":0,"x_max":1017,"o":"m 136 0 q 0 136 0 0 l 0 882 q 136 1017 0 1017 l 882 1017 q 1017 882 1017 1017 l 1017 136 q 882 0 1017 0 l 136 0 m 882 17 q 1000 136 1000 17 l 1000 882 q 882 1000 1000 1000 l 136 1000 q 17 882 18 1000 l 17 136 q 136 17 18 17 l 882 17 z "},"½":{"ha":1119,"x_min":0,"x_max":1017,"o":"m 136 0 q 0 136 0 0 l 0 882 q 136 1017 0 1017 l 882 1017 q 1017 882 1017 1017 l 1017 136 q 882 0 1017 0 l 136 0 m 882 17 q 1000 136 1000 17 l 1000 882 q 882 1000 1000 1000 l 136 1000 q 17 882 18 1000 l 17 136 q 136 17 18 17 l 882 17 z "},"¾":{"ha":1119,"x_min":0,"x_max":1017,"o":"m 136 0 q 0 136 0 0 l 0 882 q 136 1017 0 1017 l 882 1017 q 1017 882 1017 1017 l 1017 136 q 882 0 1017 0 l 136 0 m 882 17 q 1000 136 1000 17 l 1000 882 q 882 1000 1000 1000 l 136 1000 q 17 882 18 1000 l 17 136 q 136 17 18 17 l 882 17 z "},"¿":{"ha":1085,"x_min":0,"x_max":949,"o":"m 543 407 l 271 407 l 271 136 l 678 136 l 678 271 l 949 271 l 949 136 l 814 136 l 814 0 l 136 0 l 136 136 l 0 136 l 0 407 l 136 407 l 136 543 l 407 543 l 407 678 l 676 676 l 678 543 l 543 543 l 543 407 m 541 949 l 676 949 l 676 812 l 541 812 l 541 949 z "},"À":{"ha":1085,"x_min":0,"x_max":949,"o":"m 0 678 l 136 678 l 136 814 l 271 814 l 271 949 l 678 949 l 678 814 l 814 814 l 814 678 l 949 678 l 949 0 l 678 0 l 678 271 l 271 271 l 271 0 l 0 0 l 0 678 m 407 814 l 407 678 l 271 678 l 271 407 l 678 407 l 678 678 l 543 678 l 543 814 l 407 814 m 271 1085 l 271 1221 l 136 1221 l 136 1356 l 407 1356 l 407 1221 l 678 1221 l 679 1085 l 271 1085 z "},"Á":{"ha":1085,"x_min":0,"x_max":949,"o":"m 0 678 l 136 678 l 136 814 l 271 814 l 271 949 l 678 949 l 678 814 l 814 814 l 814 678 l 949 678 l 949 0 l 678 0 l 678 271 l 271 271 l 271 0 l 0 0 l 0 678 m 407 814 l 407 678 l 271 678 l 271 407 l 678 407 l 678 678 l 543 678 l 543 814 l 407 814 m 271 1085 l 271 1221 l 543 1221 l 543 1356 l 814 1356 l 814 1221 l 678 1221 l 678 1085 l 271 1085 z "},"Â":{"ha":1085,"x_min":0,"x_max":949,"o":"m 0 678 l 136 678 l 136 814 l 271 814 l 271 949 l 678 949 l 678 814 l 814 814 l 814 678 l 949 678 l 949 0 l 678 0 l 678 271 l 271 271 l 271 0 l 0 0 l 0 678 m 407 814 l 407 678 l 271 678 l 271 407 l 678 407 l 678 678 l 543 678 l 543 814 l 407 814 m 271 1204 l 271 1085 l 136 1085 l 136 1221 l 254 1221 l 271 1238 l 271 1356 l 678 1356 l 678 1238 l 695 1221 l 814 1221 l 814 1085 l 678 1085 l 678 1204 l 661 1221 l 288 1221 l 271 1204 z "},"Ã":{"ha":1085,"x_min":0,"x_max":949,"o":"m 0 678 l 136 678 l 136 814 l 271 814 l 271 949 l 678 949 l 678 814 l 814 814 l 814 678 l 949 678 l 949 0 l 678 0 l 678 271 l 271 271 l 271 0 l 0 0 l 0 678 m 407 814 l 407 678 l 271 678 l 271 407 l 678 407 l 678 678 l 543 678 l 543 814 l 407 814 m 814 1238 l 814 1356 l 949 1356 l 949 1221 l 831 1221 l 814 1204 l 814 1085 l 543 1085 l 543 1204 l 526 1221 l 288 1221 l 271 1204 l 271 1085 l 136 1085 l 136 1221 l 254 1221 l 271 1238 l 271 1356 l 543 1356 l 543 1238 l 559 1221 l 797 1221 l 814 1238 z "},"Ä":{"ha":1085,"x_min":0,"x_max":949,"o":"m 0 678 l 136 678 l 136 814 l 271 814 l 271 949 l 678 949 l 678 814 l 814 814 l 814 678 l 949 678 l 949 0 l 678 0 l 678 271 l 271 271 l 271 0 l 0 0 l 0 678 m 407 814 l 407 678 l 271 678 l 271 407 l 678 407 l 678 678 l 543 678 l 543 814 l 407 814 m 271 1221 l 271 1085 l 136 1085 l 136 1221 l 271 1221 m 814 1221 l 814 1085 l 678 1085 l 678 1221 l 814 1221 z "},"Å":{"ha":1085,"x_min":0,"x_max":949,"o":"m 0 678 l 136 678 l 136 814 l 271 814 l 271 949 l 678 949 l 678 814 l 814 814 l 814 678 l 949 678 l 949 0 l 678 0 l 678 271 l 271 271 l 271 0 l 0 0 l 0 678 m 407 814 l 407 678 l 271 678 l 271 407 l 678 407 l 678 678 l 543 678 l 543 814 l 407 814 m 543 1221 l 543 1085 l 407 1085 l 407 1221 l 543 1221 z "},"Æ":{"ha":1628,"x_min":0,"x_max":1492,"o":"m 407 814 l 407 678 l 271 678 l 271 407 l 678 407 l 678 678 l 543 678 l 543 814 l 407 814 m 678 271 l 271 271 l 271 0 l 0 0 l 0 678 l 136 678 l 136 814 l 271 814 l 271 949 l 1492 949 l 1492 814 l 949 814 l 949 543 l 1492 543 l 1492 407 l 949 407 l 949 136 l 1492 136 l 1492 0 l 678 0 l 678 271 z "},"Ç":{"ha":1085,"x_min":0,"x_max":949,"o":"m 543 0 l 271 0 l 271 136 l 136 136 l 136 271 l 0 271 l 0 678 l 136 678 l 136 814 l 271 814 l 271 949 l 814 949 l 814 814 l 949 814 l 949 678 l 678 678 l 678 814 l 407 814 l 407 678 l 271 678 l 271 271 l 407 271 l 407 136 l 678 136 l 678 271 l 949 271 l 949 136 l 814 136 l 814 0 l 678 0 l 678 -136 l 559 -136 l 543 -153 l 543 -271 l 271 -271 l 271 -136 l 526 -136 l 543 -119 l 543 0 z "},"È":{"ha":949,"x_min":0,"x_max":814,"o":"m 814 407 l 271 407 l 271 136 l 814 136 l 814 0 l 0 0 l 0 949 l 814 949 l 814 814 l 271 814 l 271 543 l 814 543 l 814 407 m 271 1085 l 271 1221 l 136 1221 l 136 1356 l 407 1356 l 407 1221 l 678 1221 l 679 1085 l 271 1085 z "},"É":{"ha":949,"x_min":0,"x_max":814,"o":"m 814 407 l 271 407 l 271 136 l 814 136 l 814 0 l 0 0 l 0 949 l 814 949 l 814 814 l 271 814 l 271 543 l 814 543 l 814 407 m 135 1085 l 136 1221 l 407 1221 l 407 1356 l 678 1356 l 678 1221 l 543 1221 l 543 1085 l 135 1085 z "},"Ê":{"ha":949,"x_min":0,"x_max":814,"o":"m 814 407 l 271 407 l 271 136 l 814 136 l 814 0 l 0 0 l 0 949 l 814 949 l 814 814 l 271 814 l 271 543 l 814 543 l 814 407 m 271 1204 l 271 1085 l 136 1085 l 136 1221 l 254 1221 l 271 1238 l 271 1356 l 543 1356 l 543 1238 l 559 1221 l 678 1221 l 678 1085 l 543 1085 l 543 1204 l 526 1221 l 288 1221 l 271 1204 z "},"Ë":{"ha":949,"x_min":0,"x_max":814,"o":"m 814 407 l 271 407 l 271 136 l 814 136 l 814 0 l 0 0 l 0 949 l 814 949 l 814 814 l 271 814 l 271 543 l 814 543 l 814 407 m 271 1221 l 271 1085 l 136 1085 l 136 1221 l 271 1221 m 678 1221 l 678 1085 l 543 1085 l 543 1221 l 678 1221 z "},"Ì":{"ha":949,"x_min":0,"x_max":814,"o":"m 543 814 l 543 136 l 814 136 l 814 0 l 0 0 l 0 136 l 271 136 l 271 814 l 0 814 l 0 949 l 814 949 l 814 814 l 543 814 m 271 1085 l 271 1221 l 136 1221 l 136 1356 l 407 1356 l 407 1221 l 678 1221 l 679 1085 l 271 1085 z "},"Í":{"ha":949,"x_min":0,"x_max":814,"o":"m 543 814 l 543 136 l 814 136 l 814 0 l 0 0 l 0 136 l 271 136 l 271 814 l 0 814 l 0 949 l 814 949 l 814 814 l 543 814 m 135 1085 l 136 1221 l 407 1221 l 407 1356 l 678 1356 l 678 1221 l 543 1221 l 543 1085 l 135 1085 z "},"Î":{"ha":949,"x_min":0,"x_max":814,"o":"m 543 814 l 543 136 l 814 136 l 814 0 l 0 0 l 0 136 l 271 136 l 271 814 l 0 814 l 0 949 l 814 949 l 814 814 l 543 814 m 271 1204 l 271 1085 l 136 1085 l 136 1221 l 254 1221 l 271 1238 l 271 1356 l 543 1356 l 543 1238 l 559 1221 l 678 1221 l 678 1085 l 543 1085 l 543 1204 l 526 1221 l 288 1221 l 271 1204 z "},"Ï":{"ha":949,"x_min":0,"x_max":814,"o":"m 543 814 l 543 136 l 814 136 l 814 0 l 0 0 l 0 136 l 271 136 l 271 814 l 0 814 l 0 949 l 814 949 l 814 814 l 543 814 m 271 1221 l 271 1085 l 136 1085 l 136 1221 l 271 1221 m 678 1221 l 678 1085 l 543 1085 l 543 1221 l 678 1221 z "},"Ð":{"ha":1085,"x_min":0,"x_max":949,"o":"m 407 407 l 407 136 l 543 136 l 543 271 l 678 271 l 678 678 l 543 678 l 543 814 l 407 814 l 407 543 l 543 543 l 543 407 l 407 407 m 136 543 l 136 949 l 678 949 l 678 814 l 814 814 l 814 678 l 949 678 l 949 271 l 814 271 l 814 136 l 678 136 l 678 0 l 136 0 l 136 407 l 0 407 l 0 543 l 136 543 z "},"Ñ":{"ha":1085,"x_min":0,"x_max":949,"o":"m 0 949 l 271 949 l 271 814 l 407 814 l 407 678 l 543 678 l 543 543 l 678 543 l 678 949 l 949 949 l 949 0 l 678 0 l 678 136 l 543 136 l 543 271 l 407 271 l 407 407 l 271 407 l 271 0 l 0 0 l 0 949 m 814 1238 l 814 1356 l 949 1356 l 949 1221 l 831 1221 l 814 1204 l 814 1085 l 543 1085 l 543 1204 l 526 1221 l 288 1221 l 271 1204 l 271 1085 l 136 1085 l 136 1221 l 254 1221 l 271 1238 l 271 1356 l 543 1356 l 543 1238 l 559 1221 l 797 1221 l 814 1238 z "},"Ò":{"ha":1085,"x_min":0,"x_max":949,"o":"m 814 0 l 136 0 l 136 136 l 0 136 l 0 814 l 136 814 l 136 949 l 814 949 l 814 814 l 949 814 l 949 136 l 814 136 l 814 0 m 678 814 l 271 814 l 271 136 l 678 136 l 678 814 m 271 1085 l 271 1221 l 136 1221 l 136 1356 l 407 1356 l 407 1221 l 678 1221 l 679 1085 l 271 1085 z "},"Ó":{"ha":1085,"x_min":0,"x_max":949,"o":"m 814 0 l 136 0 l 136 136 l 0 136 l 0 814 l 136 814 l 136 949 l 814 949 l 814 814 l 949 814 l 949 136 l 814 136 l 814 0 m 678 814 l 271 814 l 271 136 l 678 136 l 678 814 m 271 1085 l 271 1221 l 543 1221 l 543 1356 l 814 1356 l 814 1221 l 678 1221 l 678 1085 l 271 1085 z "},"Ô":{"ha":1085,"x_min":0,"x_max":949,"o":"m 814 0 l 136 0 l 136 136 l 0 136 l 0 814 l 136 814 l 136 949 l 814 949 l 814 814 l 949 814 l 949 136 l 814 136 l 814 0 m 678 814 l 271 814 l 271 136 l 678 136 l 678 814 m 271 1204 l 271 1085 l 136 1085 l 136 1221 l 254 1221 l 271 1238 l 271 1356 l 678 1356 l 678 1238 l 695 1221 l 814 1221 l 814 1085 l 678 1085 l 678 1204 l 661 1221 l 288 1221 l 271 1204 z "},"Õ":{"ha":1085,"x_min":0,"x_max":949,"o":"m 814 0 l 136 0 l 136 136 l 0 136 l 0 814 l 136 814 l 136 949 l 814 949 l 814 814 l 949 814 l 949 136 l 814 136 l 814 0 m 678 814 l 271 814 l 271 136 l 678 136 l 678 814 m 814 1238 l 814 1356 l 949 1356 l 949 1221 l 831 1221 l 814 1204 l 814 1085 l 543 1085 l 543 1204 l 526 1221 l 288 1221 l 271 1204 l 271 1085 l 136 1085 l 136 1221 l 254 1221 l 271 1238 l 271 1356 l 543 1356 l 543 1238 l 559 1221 l 797 1221 l 814 1238 z "},"Ö":{"ha":1085,"x_min":0,"x_max":949,"o":"m 814 0 l 136 0 l 136 136 l 0 136 l 0 814 l 136 814 l 136 949 l 814 949 l 814 814 l 949 814 l 949 136 l 814 136 l 814 0 m 678 814 l 271 814 l 271 136 l 678 136 l 678 814 m 271 1221 l 271 1085 l 136 1085 l 136 1221 l 271 1221 m 814 1221 l 814 1085 l 678 1085 l 678 1221 l 814 1221 z "},"×":{"ha":1085,"x_min":136,"x_max":814,"o":"m 814 814 l 814 543 l 678 543 l 678 407 l 814 407 l 814 136 l 543 136 l 543 271 l 407 271 l 407 136 l 136 136 l 136 407 l 271 407 l 271 543 l 136 543 l 136 814 l 407 814 l 407 678 l 543 678 l 543 814 l 814 814 z "},"Ø":{"ha":1085,"x_min":0,"x_max":949,"o":"m 678 814 l 271 814 l 271 407 l 390 407 l 407 424 l 407 543 l 526 543 l 543 559 l 543 678 l 678 678 l 678 814 m 271 136 l 678 136 l 678 543 l 559 543 l 543 526 l 543 407 l 424 407 l 407 390 l 407 271 l 271 271 l 271 136 m 814 0 l 136 0 l 136 136 l 0 136 l 0 814 l 136 814 l 136 949 l 814 949 l 814 814 l 949 814 l 949 136 l 814 136 l 814 0 z "},"Ù":{"ha":1085,"x_min":0,"x_max":949,"o":"m 271 949 l 271 136 l 678 136 l 678 949 l 949 949 l 949 136 l 814 136 l 814 0 l 136 0 l 136 136 l 0 136 l 0 949 l 271 949 m 271 1085 l 271 1221 l 136 1221 l 136 1356 l 407 1356 l 407 1221 l 678 1221 l 679 1085 l 271 1085 z "},"Ú":{"ha":1085,"x_min":0,"x_max":949,"o":"m 271 949 l 271 136 l 678 136 l 678 949 l 949 949 l 949 136 l 814 136 l 814 0 l 136 0 l 136 136 l 0 136 l 0 949 l 271 949 m 271 1085 l 271 1221 l 543 1221 l 543 1356 l 814 1356 l 814 1221 l 678 1221 l 678 1085 l 271 1085 z "},"Û":{"ha":1085,"x_min":0,"x_max":949,"o":"m 271 949 l 271 136 l 678 136 l 678 949 l 949 949 l 949 136 l 814 136 l 814 0 l 136 0 l 136 136 l 0 136 l 0 949 l 271 949 m 271 1204 l 271 1085 l 136 1085 l 136 1221 l 254 1221 l 271 1238 l 271 1356 l 678 1356 l 678 1238 l 695 1221 l 814 1221 l 814 1085 l 678 1085 l 678 1204 l 661 1221 l 288 1221 l 271 1204 z "},"Ü":{"ha":1085,"x_min":0,"x_max":949,"o":"m 271 949 l 271 136 l 678 136 l 678 949 l 949 949 l 949 136 l 814 136 l 814 0 l 136 0 l 136 136 l 0 136 l 0 949 l 271 949 m 271 1221 l 271 1085 l 136 1085 l 136 1221 l 271 1221 m 814 1221 l 814 1085 l 678 1085 l 678 1221 l 814 1221 z "},"Ý":{"ha":949,"x_min":0,"x_max":814,"o":"m 271 0 l 271 407 l 136 407 l 136 543 l 0 543 l 0 949 l 271 949 l 271 543 l 543 543 l 543 949 l 814 949 l 814 543 l 678 543 l 678 407 l 543 407 l 543 0 l 271 0 m 135 1085 l 136 1221 l 407 1221 l 407 1356 l 678 1356 l 678 1221 l 543 1221 l 543 1085 l 135 1085 z "},"Þ":{"ha":1085,"x_min":0,"x_max":949,"o":"m 271 678 l 271 271 l 678 271 l 678 678 l 271 678 m 271 814 l 814 814 l 814 678 l 949 678 l 949 271 l 814 271 l 814 136 l 271 136 l 271 0 l 0 0 l 0 949 l 271 949 l 271 814 z "},"ß":{"ha":1085,"x_min":0,"x_max":949,"o":"m 271 0 l 0 0 l 0 814 l 136 814 l 136 949 l 814 949 l 814 814 l 949 814 l 949 543 l 814 543 l 814 407 l 949 407 l 949 136 l 814 136 l 814 0 l 407 0 l 407 136 l 678 136 l 678 407 l 407 407 l 407 543 l 678 543 l 678 814 l 271 814 l 271 0 z "},"à":{"ha":1085,"x_min":0,"x_max":949,"o":"m 0 678 l 136 678 l 136 814 l 271 814 l 271 949 l 678 949 l 678 814 l 814 814 l 814 678 l 949 678 l 949 0 l 678 0 l 678 271 l 271 271 l 271 0 l 0 0 l 0 678 m 407 814 l 407 678 l 271 678 l 271 407 l 678 407 l 678 678 l 543 678 l 543 814 l 407 814 m 271 1085 l 271 1221 l 136 1221 l 136 1356 l 407 1356 l 407 1221 l 678 1221 l 679 1085 l 271 1085 z "},"á":{"ha":1085,"x_min":0,"x_max":949,"o":"m 0 678 l 136 678 l 136 814 l 271 814 l 271 949 l 678 949 l 678 814 l 814 814 l 814 678 l 949 678 l 949 0 l 678 0 l 678 271 l 271 271 l 271 0 l 0 0 l 0 678 m 407 814 l 407 678 l 271 678 l 271 407 l 678 407 l 678 678 l 543 678 l 543 814 l 407 814 m 271 1085 l 271 1221 l 543 1221 l 543 1356 l 814 1356 l 814 1221 l 678 1221 l 678 1085 l 271 1085 z "},"â":{"ha":1085,"x_min":0,"x_max":949,"o":"m 0 678 l 136 678 l 136 814 l 271 814 l 271 949 l 678 949 l 678 814 l 814 814 l 814 678 l 949 678 l 949 0 l 678 0 l 678 271 l 271 271 l 271 0 l 0 0 l 0 678 m 407 814 l 407 678 l 271 678 l 271 407 l 678 407 l 678 678 l 543 678 l 543 814 l 407 814 m 271 1204 l 271 1085 l 136 1085 l 136 1221 l 254 1221 l 271 1238 l 271 1356 l 678 1356 l 678 1238 l 695 1221 l 814 1221 l 814 1085 l 678 1085 l 678 1204 l 661 1221 l 288 1221 l 271 1204 z "},"ã":{"ha":1085,"x_min":0,"x_max":949,"o":"m 0 678 l 136 678 l 136 814 l 271 814 l 271 949 l 678 949 l 678 814 l 814 814 l 814 678 l 949 678 l 949 0 l 678 0 l 678 271 l 271 271 l 271 0 l 0 0 l 0 678 m 407 814 l 407 678 l 271 678 l 271 407 l 678 407 l 678 678 l 543 678 l 543 814 l 407 814 m 814 1238 l 814 1356 l 949 1356 l 949 1221 l 831 1221 l 814 1204 l 814 1085 l 543 1085 l 543 1204 l 526 1221 l 288 1221 l 271 1204 l 271 1085 l 136 1085 l 136 1221 l 254 1221 l 271 1238 l 271 1356 l 543 1356 l 543 1238 l 559 1221 l 797 1221 l 814 1238 z "},"ä":{"ha":1085,"x_min":0,"x_max":949,"o":"m 0 678 l 136 678 l 136 814 l 271 814 l 271 949 l 678 949 l 678 814 l 814 814 l 814 678 l 949 678 l 949 0 l 678 0 l 678 271 l 271 271 l 271 0 l 0 0 l 0 678 m 407 814 l 407 678 l 271 678 l 271 407 l 678 407 l 678 678 l 543 678 l 543 814 l 407 814 m 271 1221 l 271 1085 l 136 1085 l 136 1221 l 271 1221 m 814 1221 l 814 1085 l 678 1085 l 678 1221 l 814 1221 z "},"å":{"ha":1085,"x_min":0,"x_max":949,"o":"m 0 678 l 136 678 l 136 814 l 271 814 l 271 949 l 678 949 l 678 814 l 814 814 l 814 678 l 949 678 l 949 0 l 678 0 l 678 271 l 271 271 l 271 0 l 0 0 l 0 678 m 407 814 l 407 678 l 271 678 l 271 407 l 678 407 l 678 678 l 543 678 l 543 814 l 407 814 m 543 1221 l 543 1085 l 407 1085 l 407 1221 l 543 1221 z "},"æ":{"ha":1628,"x_min":0,"x_max":1492,"o":"m 407 814 l 407 678 l 271 678 l 271 407 l 678 407 l 678 678 l 543 678 l 543 814 l 407 814 m 678 271 l 271 271 l 271 0 l 0 0 l 0 678 l 136 678 l 136 814 l 271 814 l 271 949 l 1492 949 l 1492 814 l 949 814 l 949 543 l 1492 543 l 1492 407 l 949 407 l 949 136 l 1492 136 l 1492 0 l 678 0 l 678 271 z "},"ç":{"ha":1085,"x_min":0,"x_max":949,"o":"m 543 0 l 271 0 l 271 136 l 136 136 l 136 271 l 0 271 l 0 678 l 136 678 l 136 814 l 271 814 l 271 949 l 814 949 l 814 814 l 949 814 l 949 678 l 678 678 l 678 814 l 407 814 l 407 678 l 271 678 l 271 271 l 407 271 l 407 136 l 678 136 l 678 271 l 949 271 l 949 136 l 814 136 l 814 0 l 678 0 l 678 -136 l 559 -136 l 543 -153 l 543 -271 l 271 -271 l 271 -136 l 526 -136 l 543 -119 l 543 0 z "},"è":{"ha":949,"x_min":0,"x_max":814,"o":"m 814 407 l 271 407 l 271 136 l 814 136 l 814 0 l 0 0 l 0 949 l 814 949 l 814 814 l 271 814 l 271 543 l 814 543 l 814 407 m 271 1085 l 271 1221 l 136 1221 l 136 1356 l 407 1356 l 407 1221 l 678 1221 l 679 1085 l 271 1085 z "},"é":{"ha":949,"x_min":0,"x_max":814,"o":"m 814 407 l 271 407 l 271 136 l 814 136 l 814 0 l 0 0 l 0 949 l 814 949 l 814 814 l 271 814 l 271 543 l 814 543 l 814 407 m 135 1085 l 136 1221 l 407 1221 l 407 1356 l 678 1356 l 678 1221 l 543 1221 l 543 1085 l 135 1085 z "},"ê":{"ha":949,"x_min":0,"x_max":814,"o":"m 814 407 l 271 407 l 271 136 l 814 136 l 814 0 l 0 0 l 0 949 l 814 949 l 814 814 l 271 814 l 271 543 l 814 543 l 814 407 m 271 1204 l 271 1085 l 136 1085 l 136 1221 l 254 1221 l 271 1238 l 271 1356 l 543 1356 l 543 1238 l 559 1221 l 678 1221 l 678 1085 l 543 1085 l 543 1204 l 526 1221 l 288 1221 l 271 1204 z "},"ë":{"ha":949,"x_min":0,"x_max":814,"o":"m 814 407 l 271 407 l 271 136 l 814 136 l 814 0 l 0 0 l 0 949 l 814 949 l 814 814 l 271 814 l 271 543 l 814 543 l 814 407 m 271 1221 l 271 1085 l 136 1085 l 136 1221 l 271 1221 m 678 1221 l 678 1085 l 543 1085 l 543 1221 l 678 1221 z "},"ì":{"ha":949,"x_min":0,"x_max":814,"o":"m 543 814 l 543 136 l 814 136 l 814 0 l 0 0 l 0 136 l 271 136 l 271 814 l 0 814 l 0 949 l 814 949 l 814 814 l 543 814 m 271 1085 l 271 1221 l 136 1221 l 136 1356 l 407 1356 l 407 1221 l 678 1221 l 679 1085 l 271 1085 z "},"í":{"ha":949,"x_min":0,"x_max":814,"o":"m 543 814 l 543 136 l 814 136 l 814 0 l 0 0 l 0 136 l 271 136 l 271 814 l 0 814 l 0 949 l 814 949 l 814 814 l 543 814 m 135 1085 l 136 1221 l 407 1221 l 407 1356 l 678 1356 l 678 1221 l 543 1221 l 543 1085 l 135 1085 z "},"î":{"ha":949,"x_min":0,"x_max":814,"o":"m 543 814 l 543 136 l 814 136 l 814 0 l 0 0 l 0 136 l 271 136 l 271 814 l 0 814 l 0 949 l 814 949 l 814 814 l 543 814 m 271 1204 l 271 1085 l 136 1085 l 136 1221 l 254 1221 l 271 1238 l 271 1356 l 543 1356 l 543 1238 l 559 1221 l 678 1221 l 678 1085 l 543 1085 l 543 1204 l 526 1221 l 288 1221 l 271 1204 z "},"ï":{"ha":949,"x_min":0,"x_max":814,"o":"m 543 814 l 543 136 l 814 136 l 814 0 l 0 0 l 0 136 l 271 136 l 271 814 l 0 814 l 0 949 l 814 949 l 814 814 l 543 814 m 271 1221 l 271 1085 l 136 1085 l 136 1221 l 271 1221 m 678 1221 l 678 1085 l 543 1085 l 543 1221 l 678 1221 z "},"ð":{"ha":1085,"x_min":0,"x_max":949,"o":"m 407 407 l 407 136 l 543 136 l 543 271 l 678 271 l 678 678 l 543 678 l 543 814 l 407 814 l 407 543 l 543 543 l 543 407 l 407 407 m 136 543 l 136 949 l 678 949 l 678 814 l 814 814 l 814 678 l 949 678 l 949 271 l 814 271 l 814 136 l 678 136 l 678 0 l 136 0 l 136 407 l 0 407 l 0 543 l 136 543 z "},"ñ":{"ha":1085,"x_min":0,"x_max":949,"o":"m 0 949 l 271 949 l 271 814 l 407 814 l 407 678 l 543 678 l 543 543 l 678 543 l 678 949 l 949 949 l 949 0 l 678 0 l 678 136 l 543 136 l 543 271 l 407 271 l 407 407 l 271 407 l 271 0 l 0 0 l 0 949 m 814 1238 l 814 1356 l 949 1356 l 949 1221 l 831 1221 l 814 1204 l 814 1085 l 543 1085 l 543 1204 l 526 1221 l 288 1221 l 271 1204 l 271 1085 l 136 1085 l 136 1221 l 254 1221 l 271 1238 l 271 1356 l 543 1356 l 543 1238 l 559 1221 l 797 1221 l 814 1238 z "},"ò":{"ha":1085,"x_min":0,"x_max":949,"o":"m 814 0 l 136 0 l 136 136 l 0 136 l 0 814 l 136 814 l 136 949 l 814 949 l 814 814 l 949 814 l 949 136 l 814 136 l 814 0 m 678 814 l 271 814 l 271 136 l 678 136 l 678 814 m 271 1085 l 271 1221 l 136 1221 l 136 1356 l 407 1356 l 407 1221 l 678 1221 l 679 1085 l 271 1085 z "},"ó":{"ha":1085,"x_min":0,"x_max":949,"o":"m 814 0 l 136 0 l 136 136 l 0 136 l 0 814 l 136 814 l 136 949 l 814 949 l 814 814 l 949 814 l 949 136 l 814 136 l 814 0 m 678 814 l 271 814 l 271 136 l 678 136 l 678 814 m 271 1085 l 271 1221 l 543 1221 l 543 1356 l 814 1356 l 814 1221 l 678 1221 l 678 1085 l 271 1085 z "},"ô":{"ha":1085,"x_min":0,"x_max":949,"o":"m 814 0 l 136 0 l 136 136 l 0 136 l 0 814 l 136 814 l 136 949 l 814 949 l 814 814 l 949 814 l 949 136 l 814 136 l 814 0 m 678 814 l 271 814 l 271 136 l 678 136 l 678 814 m 271 1204 l 271 1085 l 136 1085 l 136 1221 l 254 1221 l 271 1238 l 271 1356 l 678 1356 l 678 1238 l 695 1221 l 814 1221 l 814 1085 l 678 1085 l 678 1204 l 661 1221 l 288 1221 l 271 1204 z "},"õ":{"ha":1085,"x_min":0,"x_max":949,"o":"m 814 0 l 136 0 l 136 136 l 0 136 l 0 814 l 136 814 l 136 949 l 814 949 l 814 814 l 949 814 l 949 136 l 814 136 l 814 0 m 678 814 l 271 814 l 271 136 l 678 136 l 678 814 m 814 1238 l 814 1356 l 949 1356 l 949 1221 l 831 1221 l 814 1204 l 814 1085 l 543 1085 l 543 1204 l 526 1221 l 288 1221 l 271 1204 l 271 1085 l 136 1085 l 136 1221 l 254 1221 l 271 1238 l 271 1356 l 543 1356 l 543 1238 l 559 1221 l 797 1221 l 814 1238 z "},"ö":{"ha":1085,"x_min":0,"x_max":949,"o":"m 814 0 l 136 0 l 136 136 l 0 136 l 0 814 l 136 814 l 136 949 l 814 949 l 814 814 l 949 814 l 949 136 l 814 136 l 814 0 m 678 814 l 271 814 l 271 136 l 678 136 l 678 814 m 271 1221 l 271 1085 l 136 1085 l 136 1221 l 271 1221 m 814 1221 l 814 1085 l 678 1085 l 678 1221 l 814 1221 z "},"÷":{"ha":814,"x_min":0,"x_max":678,"o":"m 0 543 l 678 543 l 678 407 l 0 407 l 0 543 m 271 814 l 407 814 l 407 678 l 271 678 l 271 814 m 271 271 l 407 271 l 407 136 l 271 136 l 271 271 z "},"ø":{"ha":1085,"x_min":0,"x_max":949,"o":"m 678 814 l 271 814 l 271 407 l 390 407 l 407 424 l 407 543 l 526 543 l 543 559 l 543 678 l 678 678 l 678 814 m 271 136 l 678 136 l 678 543 l 559 543 l 543 526 l 543 407 l 424 407 l 407 390 l 407 271 l 271 271 l 271 136 m 814 0 l 136 0 l 136 136 l 0 136 l 0 814 l 136 814 l 136 949 l 814 949 l 814 814 l 949 814 l 949 136 l 814 136 l 814 0 z "},"ù":{"ha":1085,"x_min":0,"x_max":949,"o":"m 271 949 l 271 136 l 678 136 l 678 949 l 949 949 l 949 136 l 814 136 l 814 0 l 136 0 l 136 136 l 0 136 l 0 949 l 271 949 m 271 1085 l 271 1221 l 136 1221 l 136 1356 l 407 1356 l 407 1221 l 678 1221 l 679 1085 l 271 1085 z "},"ú":{"ha":1085,"x_min":0,"x_max":949,"o":"m 271 949 l 271 136 l 678 136 l 678 949 l 949 949 l 949 136 l 814 136 l 814 0 l 136 0 l 136 136 l 0 136 l 0 949 l 271 949 m 271 1085 l 271 1221 l 543 1221 l 543 1356 l 814 1356 l 814 1221 l 678 1221 l 678 1085 l 271 1085 z "},"û":{"ha":1085,"x_min":0,"x_max":949,"o":"m 271 949 l 271 136 l 678 136 l 678 949 l 949 949 l 949 136 l 814 136 l 814 0 l 136 0 l 136 136 l 0 136 l 0 949 l 271 949 m 271 1204 l 271 1085 l 136 1085 l 136 1221 l 254 1221 l 271 1238 l 271 1356 l 678 1356 l 678 1238 l 695 1221 l 814 1221 l 814 1085 l 678 1085 l 678 1204 l 661 1221 l 288 1221 l 271 1204 z "},"ü":{"ha":1085,"x_min":0,"x_max":949,"o":"m 271 949 l 271 136 l 678 136 l 678 949 l 949 949 l 949 136 l 814 136 l 814 0 l 136 0 l 136 136 l 0 136 l 0 949 l 271 949 m 271 1221 l 271 1085 l 136 1085 l 136 1221 l 271 1221 m 814 1221 l 814 1085 l 678 1085 l 678 1221 l 814 1221 z "},"ý":{"ha":949,"x_min":0,"x_max":814,"o":"m 271 0 l 271 407 l 136 407 l 136 543 l 0 543 l 0 949 l 271 949 l 271 543 l 543 543 l 543 949 l 814 949 l 814 543 l 678 543 l 678 407 l 543 407 l 543 0 l 271 0 m 135 1085 l 136 1221 l 407 1221 l 407 1356 l 678 1356 l 678 1221 l 543 1221 l 543 1085 l 135 1085 z "},"þ":{"ha":1085,"x_min":0,"x_max":949,"o":"m 271 678 l 271 271 l 678 271 l 678 678 l 271 678 m 271 814 l 814 814 l 814 678 l 949 678 l 949 271 l 814 271 l 814 136 l 271 136 l 271 0 l 0 0 l 0 949 l 271 949 l 271 814 z "},"ÿ":{"ha":949,"x_min":0,"x_max":814,"o":"m 271 0 l 271 407 l 136 407 l 136 543 l 0 543 l 0 949 l 271 949 l 271 543 l 543 543 l 543 949 l 814 949 l 814 543 l 678 543 l 678 407 l 543 407 l 543 0 l 271 0 m 271 1221 l 271 1085 l 136 1085 l 136 1221 l 271 1221 m 678 1221 l 678 1085 l 543 1085 l 543 1221 l 678 1221 z "},"ı":{"ha":349,"x_min":13,"x_max":321,"o":"m 222 151 q 290 34 222 34 l 321 34 l 321 0 l 22 0 l 22 34 l 53 34 q 121 151 121 34 l 121 444 q 45 496 121 496 l 13 496 l 13 526 q 190 650 163 573 l 222 650 l 222 151 z "},"ˆ":{"ha":678,"x_min":0,"x_max":543,"o":"m 136 1204 l 136 1085 l 0 1085 l 0 1221 l 119 1221 l 136 1238 l 136 1356 l 407 1356 l 407 1238 l 424 1221 l 543 1221 l 543 1085 l 407 1085 l 407 1204 l 390 1221 l 153 1221 l 136 1204 z "},"ˇ":{"ha":678,"x_min":0,"x_max":543,"o":"m 153 1221 l 390 1221 l 407 1238 l 407 1356 l 543 1356 l 543 1221 l 424 1221 l 407 1204 l 407 1085 l 136 1085 l 136 1204 l 119 1221 l 0 1221 l 0 1356 l 136 1356 l 136 1238 l 153 1221 z "},"ˉ":{"ha":678,"x_min":0,"x_max":543,"o":"m 543 1221 l 543 1085 l 0 1085 l 0 1221 l 543 1221 z "},"˘":{"ha":678,"x_min":0,"x_max":543,"o":"m 136 1221 l 407 1221 l 407 1356 l 543 1356 l 543 1085 l 0 1085 l 0 1356 l 136 1356 l 136 1221 z "},"˙":{"ha":271,"x_min":0,"x_max":136,"o":"m 136 1221 l 136 1085 l 0 1085 l 0 1221 l 136 1221 z "},"˚":{"ha":271,"x_min":0,"x_max":136,"o":"m 136 1221 l 136 1085 l 0 1085 l 0 1221 l 136 1221 z "},"˛":{"ha":543,"x_min":0,"x_max":407,"o":"m 153 -136 l 407 -136 l 407 -271 l 136 -271 l 136 -153 l 119 -136 l 0 -136 l 0 0 l 136 0 l 136 -119 l 153 -136 z "},"˜":{"ha":949,"x_min":0,"x_max":814,"o":"m 543 1238 l 543 1356 l 814 1356 l 814 1221 l 559 1221 l 543 1204 l 543 1085 l 407 1085 l 407 1204 l 390 1221 l 153 1221 l 136 1204 l 136 1085 l 0 1085 l 0 1221 l 119 1221 l 136 1238 l 136 1356 l 407 1356 l 407 1238 l 424 1221 l 526 1221 l 543 1238 z "},"˝":{"ha":814,"x_min":0,"x_max":678,"o":"m 136 1204 l 136 1085 l 0 1085 l 0 1221 l 119 1221 l 136 1238 l 136 1356 l 271 1356 l 271 1221 l 153 1221 l 136 1204 m 543 1204 l 543 1085 l 407 1085 l 407 1221 l 526 1221 l 543 1238 l 543 1356 l 678 1356 l 678 1221 l 559 1221 l 543 1204 z "},"–":{"ha":814,"x_min":0,"x_max":678,"o":"m 0 543 l 678 543 l 678 407 l 0 407 l 0 543 z "},"—":{"ha":814,"x_min":0,"x_max":678,"o":"m 0 543 l 678 543 l 678 407 l 0 407 l 0 543 z "},"‘":{"ha":271,"x_min":0,"x_max":137,"o":"m 137 951 l 137 678 l 0 678 l 0 951 l 137 951 z "},"’":{"ha":271,"x_min":0,"x_max":137,"o":"m 137 951 l 137 678 l 0 678 l 0 951 l 137 951 z "},"‚":{"ha":271,"x_min":0,"x_max":136,"o":"m 136 136 l 136 -136 l 0 -136 l 0 136 l 136 136 z "},"“":{"ha":543,"x_min":0,"x_max":407,"o":"m 137 951 l 137 678 l 0 678 l 0 951 l 137 951 m 407 951 l 407 678 l 271 678 l 271 951 l 407 951 z "},"”":{"ha":543,"x_min":0,"x_max":407,"o":"m 137 951 l 137 678 l 0 678 l 0 951 l 137 951 m 407 951 l 407 678 l 271 678 l 271 951 l 407 951 z "},"„":{"ha":543,"x_min":0,"x_max":407,"o":"m 137 138 l 137 -136 l 0 -136 l 0 138 l 137 138 m 407 138 l 407 -136 l 271 -136 l 271 138 l 407 138 z "},"†":{"ha":688,"x_min":48,"x_max":640,"o":"m 330 693 q 293 814 324 759 q 254 901 254 882 q 279 955 254 935 q 344 975 303 975 q 408 956 382 975 q 433 907 433 937 q 396 814 433 886 q 359 693 365 757 q 479 730 424 699 q 566 768 547 768 q 620 744 600 768 q 640 679 640 720 q 622 615 640 640 q 572 589 603 589 q 480 627 551 589 q 359 665 422 658 q 433 477 364 546 q 357 -183 361 165 l 332 -183 q 254 477 328 165 q 330 665 323 546 q 209 628 264 659 q 121 589 140 589 q 68 614 88 589 q 48 679 48 638 q 67 743 48 718 q 115 768 85 768 q 208 730 137 768 q 330 693 266 699 z "},"‡":{"ha":688,"x_min":47,"x_max":640,"o":"m 358 126 q 479 165 422 134 q 572 202 550 202 q 621 177 602 202 q 640 113 640 151 q 619 47 640 72 q 566 23 599 23 q 478 62 547 23 q 358 98 423 93 q 395 -23 364 35 q 433 -116 433 -94 q 407 -164 433 -146 q 343 -183 382 -183 q 278 -163 302 -183 q 254 -110 254 -143 q 292 -22 254 -91 q 329 98 323 33 q 208 61 265 92 q 115 23 136 23 q 66 48 85 23 q 47 113 47 74 q 67 178 47 153 q 121 202 87 202 q 208 163 140 202 q 329 126 264 133 q 254 396 323 279 q 329 665 323 512 q 208 628 264 659 q 121 589 140 589 q 67 614 87 589 q 47 679 47 638 q 66 743 47 718 q 115 768 85 768 q 208 730 136 768 q 329 693 265 699 q 292 814 323 759 q 254 901 254 882 q 278 955 254 935 q 343 975 302 975 q 407 956 382 975 q 433 907 433 937 q 395 814 433 886 q 358 693 364 757 q 478 730 423 699 q 566 768 547 768 q 619 744 599 768 q 640 679 640 720 q 621 615 640 640 q 572 589 602 589 q 479 627 550 589 q 358 665 422 658 q 433 396 363 512 q 358 126 363 279 z "},"•":{"ha":694,"x_min":146,"x_max":548,"o":"m 146 487 q 205 629 146 570 q 348 687 264 687 q 489 628 431 687 q 548 487 548 570 q 489 345 548 404 q 347 286 429 286 q 205 345 263 286 q 146 487 146 404 z "},"…":{"ha":814,"x_min":0,"x_max":678,"o":"m 136 136 l 136 0 l 0 0 l 0 136 l 136 136 m 407 136 l 407 0 l 271 0 l 271 136 l 407 136 m 678 136 l 678 0 l 543 0 l 543 136 l 678 136 z "},"‹":{"ha":949,"x_min":0,"x_max":819,"o":"m 819 136 l 406 135 l 406 271 l 269 271 l 269 407 l 0 408 l 0 544 l 269 543 l 269 677 l 404 677 l 404 813 l 814 814 l 814 678 l 540 677 l 540 542 l 404 542 l 404 406 l 543 407 l 543 271 l 819 272 l 819 136 z "},"›":{"ha":949,"x_min":0,"x_max":819,"o":"m 0 272 l 277 271 l 277 407 l 415 406 l 415 542 l 279 542 l 279 677 l 5 678 l 5 814 l 415 813 l 415 677 l 551 677 l 550 543 l 819 544 l 819 408 l 550 407 l 551 271 l 413 271 l 413 135 l 0 136 l 0 272 z "},"⁄":{"ha":1085,"x_min":0,"x_max":949,"o":"m 678 407 l 543 407 l 543 271 l 407 271 l 407 136 l 271 136 l 271 0 l 0 0 l 0 271 l 136 271 l 136 407 l 271 407 l 271 543 l 407 543 l 407 678 l 543 678 l 543 814 l 678 814 l 678 949 l 949 949 l 949 678 l 814 678 l 814 543 l 678 543 l 678 407 z "},"∕":{"ha":1085,"x_min":0,"x_max":949,"o":"m 678 407 l 543 407 l 543 271 l 407 271 l 407 136 l 271 136 l 271 0 l 0 0 l 0 271 l 136 271 l 136 407 l 271 407 l 271 543 l 407 543 l 407 678 l 543 678 l 543 814 l 678 814 l 678 949 l 949 949 l 949 678 l 814 678 l 814 543 l 678 543 l 678 407 z "},"₣":{"ha":949,"x_min":0,"x_max":814,"o":"m 136 271 l 136 949 l 814 949 l 814 814 l 407 814 l 407 543 l 814 543 l 814 407 l 407 407 l 407 271 l 543 271 l 543 136 l 407 136 l 407 0 l 136 0 l 136 136 l 0 136 l 0 271 l 136 271 z "},"₤":{"ha":1085,"x_min":0,"x_max":949,"o":"m 407 407 l 407 136 l 949 136 l 949 0 l 0 0 l 0 136 l 136 136 l 136 407 l 0 407 l 0 543 l 136 543 l 136 678 l 271 678 l 271 814 l 407 814 l 407 949 l 814 949 l 814 814 l 949 814 l 949 678 l 678 678 l 678 814 l 543 814 l 543 678 l 407 678 l 407 543 l 678 543 l 678 407 l 407 407 z "},"₧":{"ha":1085,"x_min":0,"x_max":949,"o":"m 407 814 l 407 543 l 678 543 l 678 814 l 407 814 m 136 271 l 136 949 l 814 949 l 814 814 l 949 814 l 949 543 l 814 543 l 814 407 l 407 407 l 407 271 l 543 271 l 543 136 l 407 136 l 407 0 l 136 0 l 136 136 l 0 136 l 0 271 l 136 271 z "},"€":{"ha":1085,"x_min":0,"x_max":949,"o":"m 271 678 l 271 814 l 407 814 l 407 949 l 949 949 l 949 814 l 543 814 l 543 678 l 678 678 l 678 543 l 407 543 l 407 407 l 678 407 l 678 271 l 543 271 l 543 136 l 949 136 l 949 0 l 407 0 l 407 136 l 271 136 l 271 271 l 0 271 l 0 407 l 136 407 l 136 543 l 0 543 l 0 678 l 271 678 z "},"№":{"ha":1085,"x_min":0,"x_max":949,"o":"m 543 543 l 543 949 l 949 949 l 949 543 l 543 543 m 678 678 l 814 678 l 814 814 l 678 814 l 678 678 m 271 543 l 271 814 l 136 814 l 136 543 l 0 543 l 0 949 l 407 949 l 407 543 l 271 543 z "},"™":{"ha":1085,"x_min":0,"x_max":1085,"o":"m 932 814 l 814 814 l 814 678 l 678 678 l 678 814 l 543 814 l 543 543 l 407 543 l 407 814 l 271 814 l 271 543 l 136 543 l 136 814 l 0 814 l 0 949 l 949 949 l 949 831 l 966 814 l 1085 814 l 1085 543 l 949 543 l 949 797 l 932 814 z "},"∂":{"ha":1119,"x_min":0,"x_max":1017,"o":"m 136 0 q 0 136 0 0 l 0 882 q 136 1017 0 1017 l 882 1017 q 1017 882 1017 1017 l 1017 136 q 882 0 1017 0 l 136 0 m 882 17 q 1000 136 1000 17 l 1000 882 q 882 1000 1000 1000 l 136 1000 q 17 882 18 1000 l 17 136 q 136 17 18 17 l 882 17 z "},"∆":{"ha":1119,"x_min":0,"x_max":1017,"o":"m 136 0 q 0 136 0 0 l 0 882 q 136 1017 0 1017 l 882 1017 q 1017 882 1017 1017 l 1017 136 q 882 0 1017 0 l 136 0 m 882 17 q 1000 136 1000 17 l 1000 882 q 882 1000 1000 1000 l 136 1000 q 17 882 18 1000 l 17 136 q 136 17 18 17 l 882 17 z "},"∏":{"ha":1119,"x_min":0,"x_max":1017,"o":"m 136 0 q 0 136 0 0 l 0 882 q 136 1017 0 1017 l 882 1017 q 1017 882 1017 1017 l 1017 136 q 882 0 1017 0 l 136 0 m 882 17 q 1000 136 1000 17 l 1000 882 q 882 1000 1000 1000 l 136 1000 q 17 882 18 1000 l 17 136 q 136 17 18 17 l 882 17 z "},"∑":{"ha":1119,"x_min":0,"x_max":1017,"o":"m 136 0 q 0 136 0 0 l 0 882 q 136 1017 0 1017 l 882 1017 q 1017 882 1017 1017 l 1017 136 q 882 0 1017 0 l 136 0 m 882 17 q 1000 136 1000 17 l 1000 882 q 882 1000 1000 1000 l 136 1000 q 17 882 18 1000 l 17 136 q 136 17 18 17 l 882 17 z "},"−":{"ha":814,"x_min":0,"x_max":678,"o":"m 0 543 l 678 543 l 678 407 l 0 407 l 0 543 z "},"≈":{"ha":1119,"x_min":0,"x_max":1017,"o":"m 136 0 q 0 136 0 0 l 0 882 q 136 1017 0 1017 l 882 1017 q 1017 882 1017 1017 l 1017 136 q 882 0 1017 0 l 136 0 m 882 17 q 1000 136 1000 17 l 1000 882 q 882 1000 1000 1000 l 136 1000 q 17 882 18 1000 l 17 136 q 136 17 18 17 l 882 17 z "},"≤":{"ha":1119,"x_min":0,"x_max":1017,"o":"m 136 0 q 0 136 0 0 l 0 882 q 136 1017 0 1017 l 882 1017 q 1017 882 1017 1017 l 1017 136 q 882 0 1017 0 l 136 0 m 882 17 q 1000 136 1000 17 l 1000 882 q 882 1000 1000 1000 l 136 1000 q 17 882 18 1000 l 17 136 q 136 17 18 17 l 882 17 z "},"≥":{"ha":1119,"x_min":0,"x_max":1017,"o":"m 136 0 q 0 136 0 0 l 0 882 q 136 1017 0 1017 l 882 1017 q 1017 882 1017 1017 l 1017 136 q 882 0 1017 0 l 136 0 m 882 17 q 1000 136 1000 17 l 1000 882 q 882 1000 1000 1000 l 136 1000 q 17 882 18 1000 l 17 136 q 136 17 18 17 l 882 17 z "},"":{"ha":728,"x_min":0,"x_max":0,"o":""},"ﬁ":{"ha":728,"x_min":0,"x_max":0,"o":""},"":{"ha":733,"x_min":0,"x_max":0,"o":""},"ﬂ":{"ha":733,"x_min":0,"x_max":0,"o":""},"Œ":{"ha":1628,"x_min":0,"x_max":1492,"o":"m 678 814 l 271 814 l 271 136 l 678 136 l 678 814 m 136 0 l 136 136 l 0 136 l 0 814 l 136 814 l 136 949 l 1492 949 l 1492 814 l 949 814 l 949 543 l 1492 543 l 1492 407 l 949 407 l 949 136 l 1492 136 l 1492 0 l 136 0 z "},"œ":{"ha":1628,"x_min":0,"x_max":1492,"o":"m 678 814 l 271 814 l 271 136 l 678 136 l 678 814 m 136 0 l 136 136 l 0 136 l 0 814 l 136 814 l 136 949 l 1492 949 l 1492 814 l 949 814 l 949 543 l 1492 543 l 1492 407 l 949 407 l 949 136 l 1492 136 l 1492 0 l 136 0 z "},"‰":{"ha":1492,"x_min":0,"x_max":1356,"o":"m 678 407 l 543 407 l 543 271 l 407 271 l 407 136 l 271 136 l 271 0 l 0 0 l 0 271 l 136 271 l 136 407 l 271 407 l 271 543 l 407 543 l 407 678 l 543 678 l 543 814 l 678 814 l 678 949 l 949 949 l 949 678 l 814 678 l 814 543 l 678 543 l 678 407 m 271 949 l 271 678 l 0 678 l 0 949 l 271 949 m 949 271 l 949 0 l 678 0 l 678 271 l 949 271 m 1356 271 l 1356 0 l 1085 0 l 1085 271 l 1356 271 z "}}}
